<svg id="Layer_1" height="512" viewBox="0 0 512 512" width="512" xmlns="http://www.w3.org/2000/svg" data-name="Layer 1"><path d="m108.64 119.28-33.12 215.57 32.82 118.55 95.05 47.6 40.105-4.383-88.332-48.622-37.23-133.667 19.373-165.162 104.261-59.054 52.313-37.346.1-41.766-93.4 69.29z" fill="#d4e1f4"/><path d="m409.561 105.636-10.77-5.292-47.818 97.323-51.208-96.533.214-90.12-12-.028-.2 84.03-85.8-20.563-2.8 11.67 81.621 19.561-97.9 82.354-69.929-72.909-8.66 8.307.017.018-.017.017 72.022 75.129-4.115 82.8-99.31 48.049 5.227 10.8 98.165-47.494 45.787 58.318-3.291 83.538-111.147 12.833 1.377 11.921 115.015-13.28 141.472 42.748 3.47-11.487-138.218-41.765 3.106-78.857 184.2 46.3 1.463-5.819 5.633-2.066-62.856-171.353 71.288 39 5.759-10.527-80.053-43.794zm-221.249 93.669 103.629-87.028 50.644 95.74-158.085 67.923zm159.414 19.564 62.274 169.75-178.381-44.834-44.047-56.1z" fill="#1ae5be"/><g fill="#0635c9"><path d="m410.049 101.763a6 6 0 0 0 -2.028-3.379l-110.2-91.99a6 6 0 0 0 -7.42-.213l-92.825 68.862-91.276 38.715a6 6 0 0 0 -3.588 4.613l-33.121 215.566a6 6 0 0 0 .148 2.512l32.817 118.556a6 6 0 0 0 3.095 3.765l95.049 47.6a5.987 5.987 0 0 0 3.339.6l163.861-17.916a6 6 0 0 0 4.473-2.844l52.287-85.887a5.983 5.983 0 0 0 .831-2.4l16.944-139.683a6.024 6.024 0 0 0 -.083-1.95zm3.686 293.429-50.076 82.254-159.167 17.4-91.083-45.609-31.762-114.749 32.417-210.988 88.856-37.688a5.984 5.984 0 0 0 1.231-.7l89.61-66.474 104.968 87.622 31.671 151.52z"/><path d="m123.133 161.9a6 6 0 0 0 -6.9 4.936l-.6 3.6a6 6 0 0 0 4.935 6.9 6.078 6.078 0 0 0 .991.082 6 6 0 0 0 5.912-5.018l.6-3.6a6 6 0 0 0 -4.938-6.9z"/><path d="m119.362 184.6a6 6 0 0 0 -6.9 4.937l-11.11 66.928a6 6 0 0 0 4.936 6.9 6.063 6.063 0 0 0 .989.082 6 6 0 0 0 5.912-5.018l11.111-66.924a6 6 0 0 0 -4.938-6.905z"/></g></svg>